<svg xmlns="http://www.w3.org/2000/svg" xmlns:xlink="http://www.w3.org/1999/xlink" width="500" zoomAndPan="magnify" viewBox="0 0 375 374.999991" height="500" preserveAspectRatio="xMidYMid meet" version="1.0"><defs><g/><clipPath id="a570331c61"><path d="M 0.28125 60 L 370 60 L 370 220.558594 L 0.28125 220.558594 Z M 0.28125 60 " clip-rule="nonzero"/></clipPath><clipPath id="cf6062d64e"><path d="M 0.28125 0.71875 L 148 0.71875 L 148 144 L 0.28125 144 Z M 0.28125 0.71875 " clip-rule="nonzero"/></clipPath><clipPath id="7f68691b6a"><rect x="0" width="370" y="0" height="161"/></clipPath><clipPath id="6b0ba8f18e"><path d="M 3 0.238281 L 244 0.238281 L 244 128 L 3 128 Z M 3 0.238281 " clip-rule="nonzero"/></clipPath><clipPath id="acc7ae0807"><rect x="0" width="241" y="0" height="128"/></clipPath><clipPath id="834b50c46c"><rect x="0" width="370" y="0" height="221"/></clipPath></defs><g transform="matrix(1, 0, 0, 1, 5, 72)"><g clip-path="url(#834b50c46c)"><g clip-path="url(#a570331c61)"><g transform="matrix(1, 0, 0, 1, 0.000000000000000888, 60)"><g clip-path="url(#7f68691b6a)"><g clip-path="url(#cf6062d64e)"><g fill="#0081fb" fill-opacity="1"><g transform="translate(33.940903, 124.507796)"><g><path d="M -15.210938 -101.117188 L 15.71875 -108.308594 L 19.417969 -92.402344 L 3.375 -89.328125 C 3.214844 -90.167969 3.121094 -91.015625 3.09375 -91.867188 C 3.046875 -93.199219 3.164062 -94.515625 3.4375 -95.816406 C 3.761719 -97.335938 4.289062 -98.777344 5.023438 -100.148438 C 6.421875 -102.753906 8.382812 -104.824219 10.90625 -106.367188 C 14 -108.253906 17.351562 -109.027344 20.957031 -108.683594 C 23.1875 -108.472656 25.289062 -107.832031 27.253906 -106.753906 C 28.84375 -105.886719 30.25 -104.785156 31.46875 -103.445312 C 32.164062 -102.6875 32.78125 -101.871094 33.324219 -100.992188 C 33.703125 -100.382812 34.050781 -99.722656 34.371094 -99.019531 C 34.523438 -98.683594 34.71875 -98.234375 34.949219 -97.671875 C 35.292969 -96.839844 35.804688 -95.5625 36.488281 -93.84375 L 41.660156 -80.75 C 43.808594 -75.265625 46.242188 -69.132812 48.964844 -62.359375 C 51.644531 -55.441406 54.359375 -48.6875 57.113281 -42.09375 L 42.042969 -35.800781 L 25.714844 -35.386719 L 23.886719 -108.105469 L 85.398438 -122.269531 L 113.617188 -5.140625 L 56.992188 5.710938 L 38.699219 -61.914062 L 54.464844 -66.179688 L 70.769531 -67.117188 L 74.648438 0.25 L 33.566406 10.574219 L 4.332031 -52.546875 L 19.148438 -59.410156 L 35.242188 -62.191406 L 47.296875 7.566406 L -10.945312 18.726562 L -30.109375 -97.652344 Z M -7.8125 -69.300781 L -11.511719 -85.210938 L 4.601562 -87.863281 L 18.558594 -3.121094 L 2.445312 -0.46875 L -0.628906 -16.507812 L 25.398438 -21.496094 L 28.472656 -5.457031 L 12.378906 -2.675781 L 3.054688 -56.628906 L 33.96875 -66.273438 L 57.519531 -15.425781 L 42.699219 -8.5625 L 38.722656 -24.398438 L 53.589844 -28.136719 L 57.566406 -12.296875 L 41.261719 -11.359375 L 38.160156 -65.238281 L 70.230469 -70.441406 L 84.566406 -17.445312 L 68.800781 -13.179688 L 65.726562 -29.222656 L 90.65625 -33.996094 L 93.730469 -17.957031 L 77.851562 -14.132812 L 57.429688 -98.902344 L 73.308594 -102.726562 L 76.972656 -86.8125 L 44.210938 -79.269531 L 40.546875 -95.183594 L 56.871094 -95.59375 L 58.367188 -36.210938 L 26.972656 -29.507812 C 24.109375 -36.363281 21.339844 -43.253906 18.660156 -50.175781 C 15.898438 -57.042969 13.441406 -63.234375 11.285156 -68.75 L 6.125 -81.804688 C 5.5 -83.378906 5.042969 -84.515625 4.757812 -85.207031 C 4.703125 -85.34375 4.65625 -85.453125 4.621094 -85.535156 C 4.613281 -85.558594 4.605469 -85.570312 4.601562 -85.578125 C 4.613281 -85.554688 4.628906 -85.523438 4.644531 -85.488281 C 4.890625 -84.941406 5.191406 -84.390625 5.535156 -83.828125 C 6.070312 -82.964844 6.683594 -82.152344 7.371094 -81.398438 C 8.589844 -80.066406 9.996094 -78.964844 11.582031 -78.097656 C 13.546875 -77.023438 15.644531 -76.378906 17.875 -76.167969 C 21.484375 -75.828125 24.832031 -76.601562 27.925781 -78.488281 C 30.449219 -80.027344 32.40625 -82.101562 33.804688 -84.703125 C 34.539062 -86.070312 35.066406 -87.515625 35.390625 -89.03125 C 35.664062 -90.332031 35.78125 -91.644531 35.734375 -92.96875 C 35.707031 -93.8125 35.613281 -94.648438 35.457031 -95.476562 L 38.410156 -80.050781 Z M -7.8125 -69.300781 "/></g></g></g></g><g fill="#0081fb" fill-opacity="1"><g transform="translate(126.36029, 107.699912)"><g><path d="M -14.632812 -13.632812 C -14.925781 -18.910156 -14.0625 -23.664062 -12.035156 -27.894531 C -10.066406 -32.003906 -7.300781 -35.398438 -3.734375 -38.074219 C -0.617188 -40.417969 2.945312 -42.125 6.945312 -43.195312 C 9.996094 -44.011719 13.199219 -44.515625 16.554688 -44.703125 C 21.757812 -44.996094 26.980469 -44.695312 32.222656 -43.800781 L 32.421875 -43.765625 L 32.621094 -43.726562 C 37.292969 -42.808594 41.339844 -41.769531 44.75 -40.601562 L 39.460938 -25.148438 L 23.15625 -24.230469 L 22.257812 -40.257812 L 38.5625 -41.175781 L 40.882812 -25.007812 L -12.347656 -17.359375 L -15.753906 -77.960938 L 0.738281 -78.707031 C 8.4375 -79.058594 15.722656 -79.339844 22.59375 -79.558594 C 29.445312 -79.773438 35.507812 -79.902344 40.785156 -79.945312 L 73.070312 -80.300781 L 77.304688 12.011719 L 26.546875 14.863281 L 24.140625 -9.246094 L 40.390625 -10.871094 L 52.066406 0.546875 C 47.902344 4.808594 43.039062 8.210938 37.472656 10.757812 C 31.863281 13.402344 26.136719 14.886719 20.296875 15.214844 C 15.460938 15.488281 10.984375 14.960938 6.859375 13.636719 L 11.855469 -1.914062 L 7.386719 13.796875 C 2.785156 12.484375 -1.152344 10.371094 -4.417969 7.453125 L 6.464844 -4.726562 L -4.042969 7.777344 C -7.441406 4.921875 -10.03125 1.5 -11.8125 -2.484375 L 3.101562 -9.148438 L -11.527344 -1.882812 C -13.363281 -5.582031 -14.398438 -9.496094 -14.632812 -13.632812 Z M 17.980469 -15.464844 C 17.960938 -15.792969 17.875 -16.109375 17.726562 -16.414062 L 17.875 -16.113281 L 18.011719 -15.808594 C 17.75 -16.390625 17.40625 -16.863281 16.972656 -17.226562 L 17.160156 -17.066406 L 17.34375 -16.902344 C 17.03125 -17.183594 16.722656 -17.402344 16.414062 -17.5625 C 16.34375 -17.601562 16.28125 -17.628906 16.234375 -17.648438 C 16.246094 -17.644531 16.277344 -17.632812 16.324219 -17.621094 L 16.589844 -17.546875 L 16.855469 -17.460938 C 17.128906 -17.371094 17.664062 -17.351562 18.464844 -17.394531 C 20.074219 -17.484375 21.882812 -18 23.878906 -18.941406 C 25.765625 -19.804688 27.375 -20.917969 28.710938 -22.285156 L 53.160156 -47.300781 L 57.496094 -3.941406 L 41.242188 -2.320312 L 40.328125 -18.625 L 59.335938 -19.691406 L 60.25 -3.386719 L 43.9375 -2.636719 L 41.164062 -63.046875 L 57.476562 -63.796875 L 57.660156 -47.464844 L 41.042969 -47.28125 C 36.023438 -47.242188 30.21875 -47.121094 23.632812 -46.914062 C 16.90625 -46.699219 9.765625 -46.421875 2.21875 -46.078125 L 1.476562 -62.394531 L 17.78125 -63.308594 L 19.261719 -36.972656 L 2.957031 -36.058594 L 0.636719 -52.222656 L 53.867188 -59.871094 L 57.128906 -1.839844 L 34.175781 -9.695312 C 32.164062 -10.386719 29.550781 -11.046875 26.328125 -11.675781 L 29.472656 -27.703125 L 26.726562 -11.605469 C 23.914062 -12.085938 21.132812 -12.246094 18.386719 -12.09375 C 17.269531 -12.03125 16.273438 -11.882812 15.394531 -11.644531 L 15.390625 -11.65625 C 15.542969 -11.730469 15.707031 -11.828125 15.878906 -11.957031 C 16.574219 -12.480469 17.085938 -13.089844 17.421875 -13.785156 C 17.691406 -14.34375 17.863281 -14.875 17.945312 -15.378906 C 17.960938 -15.480469 17.972656 -15.566406 17.976562 -15.628906 C 17.972656 -15.601562 17.976562 -15.546875 17.980469 -15.464844 Z M 34.039062 -15.746094 C 33.929688 -17.742188 33.316406 -19.648438 32.199219 -21.464844 C 30.890625 -23.601562 29.140625 -25.214844 26.949219 -26.308594 L 27.332031 -26.121094 L 27.703125 -25.910156 C 26.710938 -26.46875 25.707031 -26.84375 24.683594 -27.03125 C 24.179688 -27.125 23.75 -27.164062 23.398438 -27.144531 C 21.828125 -27.054688 20.40625 -26.648438 19.144531 -25.925781 L 19.40625 -26.074219 L 19.671875 -26.214844 L 19.679688 -26.21875 C 19.726562 -26.257812 19.820312 -26.359375 19.96875 -26.523438 L 32.144531 -15.640625 L 21.265625 -3.460938 C 20.839844 -3.84375 20.4375 -4.164062 20.066406 -4.429688 L 29.535156 -17.738281 L 20.9375 -3.851562 C 20.589844 -4.066406 20.222656 -4.265625 19.832031 -4.453125 L 26.835938 -19.203125 L 21.410156 -3.800781 C 22.445312 -3.4375 23.554688 -3.285156 24.734375 -3.351562 C 25.085938 -3.371094 25.507812 -3.457031 26 -3.605469 C 26.996094 -3.910156 27.953125 -4.394531 28.875 -5.0625 L 19.285156 -18.28125 L 29.507812 -5.546875 C 30.996094 -6.738281 32.144531 -8.242188 32.960938 -10.058594 C 33.789062 -11.902344 34.148438 -13.800781 34.039062 -15.746094 Z M 1.429688 -13.914062 C 1.242188 -17.269531 1.820312 -20.445312 3.167969 -23.441406 C 4.496094 -26.40625 6.464844 -28.929688 9.0625 -31.015625 L 9.375 -31.265625 L 9.699219 -31.503906 C 13.402344 -34.191406 17.804688 -35.675781 22.902344 -35.964844 C 26.070312 -36.140625 29.191406 -35.691406 32.261719 -34.609375 L 33.066406 -34.324219 L 33.839844 -33.957031 C 35.328125 -33.253906 36.757812 -32.472656 38.136719 -31.621094 L 38.578125 -31.34375 L 39.003906 -31.042969 C 40.363281 -30.074219 41.703125 -29 43.027344 -27.816406 L 55.203125 -16.9375 L 44.324219 -4.757812 C 42.90625 -3.171875 41.425781 -1.773438 39.882812 -0.554688 C 38.296875 0.691406 36.613281 1.78125 34.835938 2.714844 L 27.253906 -11.75 L 35.367188 2.421875 C 32.167969 4.253906 28.792969 5.265625 25.230469 5.46875 C 20.132812 5.753906 15.59375 4.769531 11.609375 2.515625 L 19.65625 -11.699219 L 12.363281 2.914062 C 8.972656 1.222656 6.304688 -1.210938 4.355469 -4.390625 C 2.601562 -7.253906 1.625 -10.425781 1.429688 -13.914062 Z M 1.429688 -13.914062 "/></g></g></g><g fill="#0081fb" fill-opacity="1"><g transform="translate(186.483704, 104.016002)"><g><path d="M 13.59375 -11.96875 L 20.394531 -6.253906 L 9.890625 6.25 L 10.746094 -10.058594 C 12.59375 -9.960938 14.367188 -9.578125 16.074219 -8.90625 C 18.527344 -7.945312 20.632812 -6.484375 22.390625 -4.53125 L 10.253906 6.394531 L 11.109375 -9.914062 L 16.90625 -9.609375 L 21.125 -5.996094 C 19.347656 -7.519531 17.3125 -8.34375 15.023438 -8.464844 C 12.972656 -8.570312 11.046875 -8.089844 9.238281 -7.015625 L 9.660156 -7.265625 L 10.09375 -7.492188 C 9.160156 -7.011719 8.386719 -6.402344 7.773438 -5.667969 C 7.847656 -5.753906 7.941406 -5.90625 8.054688 -6.117188 L 22.46875 1.554688 L 7.816406 -5.65625 L 9.492188 -9.058594 L 24.144531 -1.847656 L 7.835938 -2.703125 L 7.972656 -5.3125 L 24.28125 -4.457031 L 9.429688 2.339844 C 7.660156 -1.527344 5.675781 -6.03125 3.476562 -11.167969 C 1.300781 -16.160156 -0.882812 -21.355469 -3.066406 -26.75 C -5.234375 -31.804688 -7.363281 -36.875 -9.457031 -41.953125 C -11.460938 -46.539062 -13.289062 -50.597656 -14.941406 -54.125 L -25.949219 -77.585938 L 39.695312 -77.09375 L 54.371094 -27.792969 L 38.71875 -23.136719 L 23.804688 -29.789062 C 23.777344 -29.730469 23.757812 -29.6875 23.75 -29.664062 C 23.769531 -29.71875 23.796875 -29.792969 23.828125 -29.890625 C 23.933594 -30.230469 24.050781 -30.664062 24.171875 -31.1875 C 24.65625 -33.226562 25.339844 -35.800781 26.21875 -38.898438 C 26.96875 -41.78125 28.039062 -45.339844 29.429688 -49.578125 C 30.835938 -53.863281 32.707031 -58.871094 35.046875 -64.59375 L 39.214844 -74.796875 L 101.828125 -74.519531 L 60.425781 12.878906 C 58.5 16.894531 56.152344 20.683594 53.386719 24.238281 C 50.4375 28.027344 47.082031 31.332031 43.3125 34.148438 C 39.457031 37.15625 35.109375 39.496094 30.273438 41.164062 C 25 42.933594 19.507812 43.667969 13.796875 43.367188 C 8.691406 43.101562 4.09375 41.972656 0 39.980469 L 7.144531 25.292969 L 0.492188 40.207031 C -2.855469 38.714844 -5.738281 37.015625 -8.160156 35.109375 C -10.472656 33.234375 -12.519531 30.941406 -14.296875 28.234375 L -0.636719 19.277344 L -13.578125 29.242188 C -14.761719 27.703125 -15.890625 26.117188 -16.964844 24.480469 L -21.761719 17.164062 L -3.285156 -26.148438 Z M -7.417969 13.039062 L 3.085938 0.535156 L 18.109375 6.945312 L 11.714844 21.933594 L -3.308594 15.527344 L 10.351562 6.570312 C 10.96875 7.515625 11.621094 8.429688 12.300781 9.316406 L 12.679688 9.808594 L 13.019531 10.324219 L 13.019531 10.34375 C 12.8125 10.101562 12.488281 9.804688 12.050781 9.449219 C 12.339844 9.679688 12.925781 9.992188 13.796875 10.378906 L 14.042969 10.488281 L 14.289062 10.609375 C 14.246094 10.585938 14.214844 10.574219 14.191406 10.566406 C 14.222656 10.578125 14.273438 10.589844 14.335938 10.605469 C 14.640625 10.675781 15.03125 10.726562 15.507812 10.75 C 17.085938 10.832031 18.449219 10.679688 19.605469 10.292969 C 21.027344 9.804688 22.410156 9.035156 23.75 7.996094 C 25.171875 6.933594 26.457031 5.664062 27.605469 4.183594 C 28.9375 2.472656 30.039062 0.710938 30.90625 -1.105469 L 61.316406 -65.296875 L 76.074219 -58.304688 L 76.003906 -41.972656 L 50.09375 -42.085938 L 50.164062 -58.417969 L 65.285156 -52.242188 C 63.238281 -47.234375 61.632812 -42.953125 60.464844 -39.398438 C 59.285156 -35.796875 58.339844 -32.652344 57.636719 -29.960938 C 56.886719 -27.332031 56.328125 -25.234375 55.957031 -23.664062 C 55.292969 -20.867188 54.519531 -18.472656 53.632812 -16.480469 L 35.652344 23.816406 L 11.839844 -56.195312 L 27.492188 -60.855469 L 27.371094 -44.523438 L -0.28125 -44.730469 L -0.15625 -61.058594 L 14.625 -67.996094 C 16.410156 -64.199219 18.449219 -59.664062 20.746094 -54.390625 C 22.777344 -49.453125 24.933594 -44.328125 27.203125 -39.015625 C 29.28125 -33.886719 31.382812 -28.886719 33.503906 -24.019531 C 35.597656 -19.128906 37.472656 -14.875 39.132812 -11.253906 L 40.800781 -7.605469 L 40.277344 2.355469 L 37.007812 8.996094 L 36.886719 9.226562 C 35.710938 11.4375 34.363281 13.453125 32.839844 15.273438 C 30.628906 17.917969 28.035156 20.011719 25.050781 21.546875 L 17.574219 7.027344 L 25.90625 21.074219 C 22.042969 23.367188 17.84375 24.390625 13.308594 24.15625 C 8.203125 23.886719 3.726562 22.105469 -0.117188 18.8125 L 10.503906 6.40625 L 9.648438 22.714844 L 2.644531 22.347656 L -1.882812 17.320312 C -0.203125 19.1875 1.804688 20.578125 4.136719 21.496094 C 5.71875 22.117188 7.351562 22.472656 9.03125 22.558594 L 3.570312 22.273438 Z M -7.417969 13.039062 "/></g></g></g><g fill="#0081fb" fill-opacity="1"><g transform="translate(251.166171, 107.089342)"><g><path d="M 51.257812 -95.703125 C 52.933594 -95.832031 54.679688 -95.742188 56.492188 -95.433594 L 53.753906 -79.332031 L 53.28125 -95.65625 C 54.78125 -95.699219 56.308594 -95.589844 57.863281 -95.324219 L 59.457031 -95.054688 C 62.203125 -94.585938 65.3125 -93.789062 68.78125 -92.660156 C 73.15625 -91.21875 77.214844 -89.085938 80.957031 -86.269531 C 85.339844 -82.882812 88.769531 -78.613281 91.253906 -73.453125 C 94.078125 -67.589844 94.917969 -60.867188 93.777344 -53.28125 C 93.773438 -53.238281 93.777344 -53.265625 93.789062 -53.367188 C 93.785156 -53.316406 93.773438 -53.238281 93.761719 -53.128906 C 93.726562 -52.816406 93.679688 -52.378906 93.621094 -51.820312 C 93.410156 -49.84375 93.0625 -47.746094 92.566406 -45.527344 C 92.015625 -43.007812 91.210938 -40.398438 90.152344 -37.707031 L 90.035156 -37.40625 L 89.90625 -37.109375 C 88.398438 -33.675781 86.40625 -30.554688 83.929688 -27.742188 L 83.746094 -27.539062 L 83.558594 -27.335938 C 80.585938 -24.191406 77.03125 -21.71875 72.894531 -19.921875 C 68.425781 -17.984375 63.398438 -17.175781 57.8125 -17.5 L 58.757812 -33.800781 L 74.859375 -31.0625 L 74.835938 -30.941406 L 58.738281 -33.679688 L 61.476562 -49.78125 C 65.605469 -49.078125 69.289062 -47.917969 72.523438 -46.300781 L 72.910156 -46.105469 L 73.289062 -45.890625 C 76.382812 -44.128906 79.054688 -42.0625 81.308594 -39.6875 C 83.734375 -37.128906 85.628906 -34.316406 87 -31.246094 L 87.15625 -30.890625 L 87.300781 -30.53125 C 88.296875 -27.96875 88.980469 -25.355469 89.339844 -22.6875 L 73.15625 -20.5 L 89.273438 -23.121094 C 90.175781 -17.582031 89.84375 -11.773438 88.28125 -5.695312 L 72.464844 -9.761719 L 88.566406 -7.023438 C 87.34375 0.148438 84.726562 6.121094 80.707031 10.890625 C 76.828125 15.496094 72.125 18.890625 66.59375 21.074219 C 61.671875 23.019531 56.398438 23.984375 50.773438 23.964844 L 50.828125 7.632812 L 51.148438 23.960938 C 46.578125 24.054688 41.984375 23.707031 37.371094 22.921875 L -13.40625 14.285156 L 4.191406 -101.425781 L 54.375 -95.640625 L 52.507812 -79.417969 Z M 52.191406 -63.015625 L 16.101562 -67.175781 L 17.96875 -83.398438 L 34.117188 -80.941406 L 21.296875 3.332031 L 5.152344 0.875 L 7.890625 -15.222656 L 42.847656 -9.277344 C 45.433594 -8.839844 47.984375 -8.644531 50.503906 -8.695312 L 50.691406 -8.699219 L 50.882812 -8.695312 C 52.320312 -8.691406 53.554688 -8.894531 54.585938 -9.300781 C 55.007812 -9.46875 55.390625 -9.753906 55.730469 -10.152344 C 55.691406 -10.113281 55.671875 -10.082031 55.660156 -10.066406 C 55.699219 -10.132812 55.746094 -10.230469 55.800781 -10.355469 C 56.023438 -10.890625 56.214844 -11.605469 56.363281 -12.5 L 56.480469 -13.171875 L 56.648438 -13.828125 C 57.074219 -15.492188 57.203125 -16.839844 57.035156 -17.878906 L 57 -18.09375 L 56.972656 -18.3125 C 56.960938 -18.402344 56.925781 -18.515625 56.871094 -18.660156 L 72.085938 -24.59375 L 57.167969 -17.941406 C 57.320312 -17.605469 57.464844 -17.359375 57.609375 -17.210938 L 57.621094 -17.191406 C 57.5 -17.28125 57.339844 -17.386719 57.140625 -17.5 L 65.214844 -31.695312 L 57.90625 -17.089844 C 57.574219 -17.257812 56.9375 -17.421875 56 -17.578125 L 39.898438 -20.316406 L 45.109375 -50.949219 L 59.699219 -50.105469 C 60.105469 -50.082031 60.402344 -50.085938 60.585938 -50.113281 C 60.414062 -50.085938 60.183594 -50.011719 59.890625 -49.882812 C 59.941406 -49.90625 59.984375 -49.925781 60.019531 -49.945312 L 60.015625 -49.941406 C 59.949219 -49.894531 59.875 -49.832031 59.804688 -49.753906 L 71.679688 -38.546875 L 59.433594 -49.347656 C 59.664062 -49.613281 59.851562 -49.90625 59.996094 -50.230469 L 74.949219 -43.667969 L 59.746094 -49.632812 C 60.175781 -50.726562 60.488281 -51.714844 60.683594 -52.601562 C 60.910156 -53.628906 61.058594 -54.472656 61.128906 -55.140625 C 61.292969 -56.742188 61.410156 -57.742188 61.480469 -58.136719 C 61.59375 -58.910156 61.632812 -59.503906 61.589844 -59.914062 C 61.601562 -59.792969 61.679688 -59.582031 61.824219 -59.285156 C 61.570312 -59.8125 61.40625 -60.105469 61.324219 -60.167969 C 60.441406 -60.832031 59.558594 -61.308594 58.675781 -61.601562 C 56.722656 -62.238281 55.15625 -62.652344 53.980469 -62.855469 L 52.386719 -63.125 C 52.957031 -63.027344 53.570312 -62.988281 54.226562 -63.007812 L 52.609375 -62.960938 L 51.015625 -63.234375 C 51.847656 -63.089844 52.757812 -63.058594 53.753906 -63.136719 Z M 31.34375 -20.324219 C 31.1875 -19.640625 31.191406 -18.820312 31.359375 -17.871094 C 31.554688 -16.597656 32.054688 -15.390625 32.863281 -14.25 L 46.183594 -23.699219 L 33.328125 -13.628906 C 34.433594 -12.21875 35.746094 -11.125 37.269531 -10.347656 C 38.128906 -9.910156 38.949219 -9.625 39.730469 -9.492188 L 38.871094 -9.636719 L 41.609375 -25.738281 L 39.722656 -9.515625 L 30.316406 -10.613281 L 32.203125 -26.832031 L 48.410156 -24.808594 L 46.308594 -8 L 30.101562 -10.027344 L 32.148438 -26.226562 L 41.144531 -25.09375 L 41.488281 -25.035156 C 40.328125 -25.230469 39.046875 -25.132812 37.648438 -24.734375 C 35.546875 -24.136719 33.777344 -23.023438 32.339844 -21.394531 C 31.785156 -20.765625 31.449219 -20.171875 31.335938 -19.621094 L 47.328125 -16.308594 L 31.1875 -13.816406 L 30.652344 -17.285156 Z M 63.191406 -13.070312 L 47.265625 -16.699219 L 63.40625 -19.191406 L 63.917969 -15.886719 L 63.320312 -13 C 62.261719 -7.894531 60.101562 -3.492188 56.835938 0.210938 C 54.042969 3.375 50.625 5.535156 46.574219 6.683594 C 43.230469 7.632812 39.710938 7.796875 36.011719 7.167969 L 38.75 -8.933594 L 36.707031 7.269531 L 11.875 4.132812 L 18.007812 -44.925781 L 43.925781 -41.910156 L 45.207031 -41.691406 C 47.703125 -41.269531 50 -40.519531 52.101562 -39.449219 C 54.863281 -38.042969 57.175781 -36.148438 59.042969 -33.769531 L 59.28125 -33.464844 L 59.503906 -33.148438 C 61.671875 -30.09375 63.011719 -26.890625 63.527344 -23.542969 C 64.121094 -20.164062 64.011719 -16.671875 63.191406 -13.070312 Z M 36.167969 -56.105469 C 36.011719 -55.421875 36.015625 -54.601562 36.183594 -53.652344 C 36.378906 -52.378906 36.878906 -51.171875 37.6875 -50.03125 L 51.007812 -59.480469 L 38.152344 -49.40625 C 39.253906 -48 40.570312 -46.90625 42.09375 -46.128906 C 42.953125 -45.691406 43.773438 -45.40625 44.554688 -45.273438 L 43.695312 -45.417969 L 46.433594 -61.519531 L 44.542969 -45.296875 L 35.140625 -46.394531 L 37.027344 -62.613281 L 53.230469 -60.589844 L 51.132812 -43.78125 L 34.925781 -45.808594 L 36.972656 -62.007812 L 45.96875 -60.875 L 46.3125 -60.816406 C 44.953125 -61.046875 43.5 -60.917969 41.953125 -60.433594 C 39.898438 -59.785156 38.195312 -58.664062 36.839844 -57.0625 C 36.578125 -56.769531 36.398438 -56.417969 36.296875 -56.011719 L 52.148438 -52.089844 L 36.011719 -49.597656 L 35.472656 -53.066406 Z M 68.011719 -48.851562 L 52.089844 -52.480469 L 68.230469 -54.972656 L 68.789062 -51.347656 L 68.003906 -48.171875 C 66.824219 -43.402344 64.75 -39.335938 61.777344 -35.96875 C 59.054688 -32.75 55.710938 -30.519531 51.742188 -29.273438 C 48.285156 -28.183594 44.648438 -27.964844 40.835938 -28.613281 L 43.574219 -44.714844 L 41.527344 -28.511719 L 16.699219 -31.648438 L 22.832031 -80.707031 L 48.746094 -77.691406 L 50.03125 -77.472656 C 52.527344 -77.050781 54.824219 -76.300781 56.925781 -75.230469 C 59.6875 -73.824219 62 -71.929688 63.863281 -69.550781 L 64.105469 -69.246094 L 64.328125 -68.925781 C 66.496094 -65.875 67.835938 -62.671875 68.347656 -59.324219 C 68.945312 -55.945312 68.832031 -52.453125 68.011719 -48.851562 Z M 68.011719 -48.851562 "/></g></g></g><g fill="#0081fb" fill-opacity="1"><g transform="translate(319.98706, 119.656581)"><g><path d="M -12.203125 -11.707031 C -9.910156 -20.726562 -5.355469 -26.824219 1.457031 -30.003906 L 8.363281 -15.203125 L 1.121094 -29.84375 C 6.785156 -32.644531 13.621094 -33.03125 21.625 -30.992188 C 26.175781 -29.835938 29.933594 -28.199219 32.898438 -26.078125 L 33.359375 -25.753906 L 33.792969 -25.394531 C 37.335938 -22.476562 39.808594 -19.023438 41.214844 -15.039062 C 42.449219 -11.53125 42.847656 -7.898438 42.410156 -4.148438 C 42.179688 -2.183594 41.820312 -0.246094 41.335938 1.660156 C 40.820312 3.683594 40.195312 5.632812 39.460938 7.507812 L 39.28125 7.972656 L 39.070312 8.425781 C 37.433594 11.953125 35.140625 14.902344 32.195312 17.277344 L 21.949219 4.558594 L 32.671875 16.878906 C 29.167969 19.925781 24.964844 21.75 20.0625 22.351562 L 18.082031 6.140625 L 20.511719 22.289062 C 16.644531 22.871094 12.320312 22.554688 7.539062 21.335938 C 2.847656 20.144531 -1.039062 18.277344 -4.117188 15.742188 L 6.265625 3.132812 L -3.226562 16.425781 C -7.242188 13.558594 -10.0625 9.945312 -11.683594 5.59375 L 3.621094 -0.105469 L -11.457031 6.167969 C -12.910156 2.675781 -13.511719 -1.011719 -13.265625 -4.890625 C -13.148438 -7.105469 -12.796875 -9.375 -12.203125 -11.707031 Z M 19.449219 -3.652344 C 19.386719 -3.410156 19.347656 -3.128906 19.332031 -2.808594 C 19.40625 -3.996094 19.195312 -5.183594 18.699219 -6.378906 L 18.820312 -6.09375 L 18.925781 -5.804688 C 18.222656 -7.699219 17.164062 -9.148438 15.753906 -10.15625 L 16.210938 -9.828125 L 16.648438 -9.472656 C 16.117188 -9.90625 15.625 -10.226562 15.171875 -10.429688 L 15.152344 -10.441406 C 15.269531 -10.402344 15.414062 -10.363281 15.59375 -10.316406 C 16.113281 -10.183594 16.5 -10.105469 16.757812 -10.082031 C 16.503906 -10.105469 16.136719 -10.082031 15.652344 -10.007812 L 15.875 -10.042969 L 16.097656 -10.070312 C 14.378906 -9.859375 12.753906 -9.089844 11.230469 -7.761719 L 11.464844 -7.964844 L 11.703125 -8.160156 C 10.695312 -7.347656 9.941406 -6.402344 9.441406 -5.324219 L 24.257812 1.550781 L 9.050781 -4.410156 C 9.292969 -5.023438 9.503906 -5.683594 9.683594 -6.394531 C 9.8125 -6.902344 9.90625 -7.417969 9.96875 -7.945312 C 9.820312 -6.6875 9.96875 -5.433594 10.410156 -4.179688 C 11.019531 -2.453125 11.890625 -1.117188 13.027344 -0.183594 L 23.410156 -12.789062 L 13.921875 0.503906 C 14.300781 0.773438 14.59375 0.953125 14.796875 1.035156 C 14.53125 0.925781 14.121094 0.800781 13.570312 0.660156 C 12.820312 0.46875 12.34375 0.375 12.144531 0.371094 C 13.175781 0.375 14.328125 0.0625 15.605469 -0.566406 L 15.4375 -0.484375 L 15.269531 -0.40625 C 17.101562 -1.261719 18.476562 -2.417969 19.394531 -3.871094 C 19.53125 -4.089844 19.621094 -4.253906 19.664062 -4.363281 C 19.601562 -4.207031 19.53125 -3.96875 19.449219 -3.652344 Z M 19.449219 -3.652344 "/></g></g></g><g fill="#181c28" fill-opacity="1"><g transform="translate(33.940903, 124.507796)"><g><path d="M -11.5 -85.203125 L 19.40625 -92.390625 C 19.363281 -92.640625 20 -91.117188 21.3125 -87.828125 C 22.625 -84.523438 24.34375 -80.164062 26.46875 -74.75 C 28.625 -69.25 31.070312 -63.082031 33.8125 -56.25 C 36.488281 -49.34375 39.234375 -42.523438 42.046875 -35.796875 L 40.546875 -95.171875 L 73.3125 -102.71875 L 93.734375 -17.953125 L 68.796875 -13.1875 L 54.46875 -66.171875 L 57.5625 -12.3125 L 42.6875 -8.5625 L 19.15625 -59.40625 L 28.46875 -5.453125 L 2.4375 -0.46875 Z M -11.5 -85.203125 "/></g></g></g><g fill="#181c28" fill-opacity="1"><g transform="translate(126.36029, 107.699912)"><g><path d="M 1.671875 -14.5625 C 1.535156 -17.039062 1.878906 -19.132812 2.703125 -20.84375 C 3.503906 -22.550781 4.625 -23.941406 6.0625 -25.015625 C 7.5 -26.085938 9.203125 -26.890625 11.171875 -27.421875 C 13.128906 -27.941406 15.226562 -28.265625 17.46875 -28.390625 C 21.445312 -28.617188 25.453125 -28.382812 29.484375 -27.6875 C 33.421875 -26.925781 36.75 -26.082031 39.46875 -25.15625 L 38.5625 -41.171875 L 2.953125 -36.046875 L 1.484375 -62.390625 C 9.097656 -62.742188 16.304688 -63.03125 23.109375 -63.25 C 29.828125 -63.457031 35.757812 -63.582031 40.90625 -63.625 C 46.882812 -63.707031 52.410156 -63.765625 57.484375 -63.796875 L 60.25 -3.390625 L 41.25 -2.3125 L 40.390625 -10.859375 C 37.628906 -8.054688 34.394531 -5.800781 30.6875 -4.09375 C 26.875 -2.300781 23.101562 -1.300781 19.375 -1.09375 C 16.550781 -0.925781 14.046875 -1.203125 11.859375 -1.921875 C 9.660156 -2.535156 7.859375 -3.472656 6.453125 -4.734375 C 4.984375 -5.972656 3.867188 -7.441406 3.109375 -9.140625 C 2.253906 -10.847656 1.773438 -12.65625 1.671875 -14.5625 Z M 17.71875 -14.84375 C 17.800781 -13.351562 18.445312 -12.304688 19.65625 -11.703125 C 20.851562 -11.015625 22.40625 -10.722656 24.3125 -10.828125 C 25.300781 -10.890625 26.28125 -11.195312 27.25 -11.75 C 28.132812 -12.21875 28.976562 -12.765625 29.78125 -13.390625 C 30.582031 -14.015625 31.367188 -14.765625 32.140625 -15.640625 C 31.273438 -16.421875 30.40625 -17.113281 29.53125 -17.71875 C 28.664062 -18.257812 27.769531 -18.753906 26.84375 -19.203125 C 25.8125 -19.566406 24.800781 -19.71875 23.8125 -19.65625 C 21.90625 -19.550781 20.394531 -19.09375 19.28125 -18.28125 C 18.164062 -17.382812 17.644531 -16.238281 17.71875 -14.84375 Z M 17.71875 -14.84375 "/></g></g></g><g fill="#181c28" fill-opacity="1"><g transform="translate(186.483704, 104.016002)"><g><path d="M 3.09375 0.53125 L 9.890625 6.234375 C 10.054688 6.242188 10.175781 6.289062 10.25 6.375 L 10.5 6.390625 C 11.53125 7.285156 12.753906 7.769531 14.171875 7.84375 C 15.410156 7.90625 16.546875 7.628906 17.578125 7.015625 C 18.585938 6.492188 19.492188 5.757812 20.296875 4.8125 C 21.109375 3.851562 21.832031 2.769531 22.46875 1.5625 C 23.03125 0.414062 23.585938 -0.71875 24.140625 -1.84375 L 24.28125 -4.4375 C 22.570312 -8.195312 20.640625 -12.578125 18.484375 -17.578125 C 16.335938 -22.515625 14.195312 -27.613281 12.0625 -32.875 C 9.84375 -38.0625 7.703125 -43.164062 5.640625 -48.1875 C 3.492188 -53.101562 1.5625 -57.394531 -0.15625 -61.0625 L 27.5 -60.84375 L 38.71875 -23.140625 C 39.195312 -24.191406 39.648438 -25.617188 40.078125 -27.421875 C 40.492188 -29.222656 41.109375 -31.5625 41.921875 -34.4375 C 42.648438 -37.21875 43.65625 -40.566406 44.9375 -44.484375 C 46.226562 -48.398438 47.972656 -53.046875 50.171875 -58.421875 L 76.078125 -58.28125 L 45.65625 5.890625 C 44.257812 8.804688 42.539062 11.578125 40.5 14.203125 C 38.457031 16.847656 36.132812 19.132812 33.53125 21.0625 C 30.925781 23.09375 28.0625 24.648438 24.9375 25.734375 C 21.726562 26.804688 18.300781 27.25 14.65625 27.0625 C 11.757812 26.90625 9.25 26.316406 7.125 25.296875 C 5.03125 24.359375 3.304688 23.347656 1.953125 22.265625 C 1.066406 21.566406 0.203125 20.566406 -0.640625 19.265625 C -1.578125 18.054688 -2.46875 16.8125 -3.3125 15.53125 Z M 3.09375 0.53125 "/></g></g></g><g fill="#181c28" fill-opacity="1"><g transform="translate(251.166171, 107.089342)"><g><path d="M 52.5 -79.40625 C 52.84375 -79.4375 53.257812 -79.410156 53.75 -79.328125 C 54.164062 -79.335938 54.625 -79.300781 55.125 -79.21875 L 56.703125 -78.953125 C 58.671875 -78.617188 61.007812 -78.007812 63.71875 -77.125 C 66.351562 -76.257812 68.828125 -74.957031 71.140625 -73.21875 C 73.367188 -71.5 75.171875 -69.21875 76.546875 -66.375 C 77.898438 -63.53125 78.257812 -59.972656 77.625 -55.703125 C 77.582031 -55.460938 77.5 -54.71875 77.375 -53.46875 C 77.238281 -52.144531 76.988281 -50.679688 76.625 -49.078125 C 76.25 -47.367188 75.691406 -45.566406 74.953125 -43.671875 C 74.117188 -41.785156 73.03125 -40.078125 71.6875 -38.546875 C 70.238281 -37.023438 68.472656 -35.8125 66.390625 -34.90625 C 64.304688 -33.988281 61.757812 -33.617188 58.75 -33.796875 L 58.734375 -33.671875 C 61.265625 -33.242188 63.421875 -32.582031 65.203125 -31.6875 C 66.898438 -30.738281 68.316406 -29.65625 69.453125 -28.4375 C 70.585938 -27.238281 71.460938 -25.957031 72.078125 -24.59375 C 72.609375 -23.25 72.96875 -21.882812 73.15625 -20.5 C 73.6875 -17.21875 73.457031 -13.640625 72.46875 -9.765625 C 71.738281 -5.503906 70.320312 -2.128906 68.21875 0.359375 C 66.101562 2.867188 63.5625 4.707031 60.59375 5.875 C 57.613281 7.0625 54.359375 7.644531 50.828125 7.625 C 47.273438 7.695312 43.703125 7.429688 40.109375 6.828125 L 5.140625 0.875 L 17.984375 -83.40625 Z M 47.265625 -16.703125 C 47.597656 -18.160156 47.65625 -19.492188 47.4375 -20.703125 C 47.269531 -21.742188 46.851562 -22.742188 46.1875 -23.703125 C 45.425781 -24.671875 44.1875 -25.300781 42.46875 -25.59375 L 41.609375 -25.734375 L 32.203125 -26.84375 L 30.109375 -10.03125 L 38.75 -8.921875 C 41.28125 -8.492188 43.222656 -9.054688 44.578125 -10.609375 C 45.929688 -12.128906 46.847656 -14.03125 47.328125 -16.3125 Z M 52.078125 -52.46875 C 52.410156 -53.925781 52.472656 -55.269531 52.265625 -56.5 C 52.097656 -57.519531 51.675781 -58.507812 51 -59.46875 C 50.238281 -60.445312 49 -61.082031 47.28125 -61.375 L 46.421875 -61.53125 L 37.015625 -62.609375 L 34.921875 -45.8125 L 43.5625 -44.71875 C 46.007812 -44.300781 47.925781 -44.898438 49.3125 -46.515625 C 50.664062 -48.054688 51.609375 -49.914062 52.140625 -52.09375 Z M 52.078125 -52.46875 "/></g></g></g><g fill="#181c28" fill-opacity="1"><g transform="translate(319.98706, 119.656581)"><g><path d="M 3.640625 -7.6875 C 4.660156 -11.695312 6.234375 -14.203125 8.359375 -15.203125 C 10.410156 -16.210938 13.488281 -16.195312 17.59375 -15.15625 C 20.164062 -14.5 22.101562 -13.710938 23.40625 -12.796875 C 24.613281 -11.796875 25.410156 -10.734375 25.796875 -9.609375 C 26.203125 -8.484375 26.332031 -7.296875 26.1875 -6.046875 C 26.039062 -4.796875 25.8125 -3.566406 25.5 -2.359375 C 25.15625 -0.992188 24.742188 0.304688 24.265625 1.546875 C 23.691406 2.773438 22.921875 3.773438 21.953125 4.546875 C 20.960938 5.421875 19.664062 5.953125 18.0625 6.140625 C 16.382812 6.390625 14.21875 6.175781 11.5625 5.5 C 9.226562 4.90625 7.457031 4.117188 6.25 3.140625 C 4.957031 2.210938 4.082031 1.128906 3.625 -0.109375 C 3.132812 -1.253906 2.9375 -2.503906 3.03125 -3.859375 C 3.101562 -5.109375 3.304688 -6.382812 3.640625 -7.6875 Z M 3.640625 -7.6875 "/></g></g></g></g></g></g><g clip-path="url(#6b0ba8f18e)"><g transform="matrix(1, 0, 0, 1, 3, 0)"><g clip-path="url(#acc7ae0807)"><g fill="#0081fb" fill-opacity="1"><g transform="translate(27.629886, 102.122529)"><g><path d="M 14.488281 -62.925781 L 20.136719 -34.488281 L 9.421875 -32.359375 L -1.488281 -32.996094 C -1.339844 -35.507812 -0.917969 -38.023438 -0.21875 -40.542969 C 0.515625 -43.054688 1.445312 -45.378906 2.5625 -47.511719 C 3.90625 -50.074219 5.570312 -52.304688 7.554688 -54.195312 C 10.097656 -56.621094 13.027344 -58.226562 16.347656 -59.015625 C 22.546875 -60.488281 27.910156 -60.273438 32.445312 -58.375 L 32.601562 -58.308594 L 32.753906 -58.238281 C 37.417969 -56.113281 41.09375 -52.332031 43.78125 -46.894531 C 45.675781 -42.902344 47.289062 -37.835938 48.617188 -31.695312 C 49.738281 -26.25 51.046875 -19.660156 52.539062 -11.929688 L 54.527344 -1.648438 L 15.964844 7.519531 L 14.8125 -5.023438 C 14.714844 -6.105469 14.558594 -7.546875 14.347656 -9.34375 L 25.203125 -10.613281 L 14.390625 -9.027344 C 14.121094 -10.855469 13.816406 -12.84375 13.472656 -14.996094 L 24.261719 -16.722656 L 13.515625 -14.742188 C 13.140625 -16.777344 12.730469 -18.859375 12.277344 -20.992188 C 11.878906 -22.863281 11.460938 -24.527344 11.019531 -25.984375 L 21.480469 -29.152344 L 11.121094 -25.671875 C 10.804688 -26.613281 10.546875 -27.25 10.34375 -27.574219 C 11.03125 -26.5 11.960938 -25.621094 13.128906 -24.9375 C 14.144531 -24.347656 15.242188 -23.960938 16.421875 -23.777344 C 17.652344 -23.585938 18.867188 -23.632812 20.070312 -23.917969 C 20.425781 -24.003906 20.757812 -24.222656 21.070312 -24.578125 C 20.960938 -24.449219 20.878906 -24.339844 20.828125 -24.25 C 20.875 -24.332031 20.921875 -24.457031 20.964844 -24.621094 L 10.414062 -27.460938 L 21.132812 -29.585938 L 27.910156 4.59375 L -6.238281 12.714844 L -10.597656 -5.609375 L -12.675781 -14.355469 C -13.433594 -17.304688 -14.191406 -20.375 -14.953125 -23.570312 L -17.089844 -32.5625 L -24.710938 -63.546875 L 12.136719 -74.765625 Z M -6.945312 -58.667969 L 3.773438 -60.796875 L 6.953125 -50.34375 L -8.445312 -45.65625 L -11.628906 -56.109375 L -1.019531 -58.71875 L 4.171875 -37.617188 L 6.308594 -28.625 C 7.039062 -25.558594 7.796875 -22.484375 8.585938 -19.410156 L 10.664062 -10.664062 L 12.492188 -2.96875 L 1.863281 -0.441406 L -0.664062 -11.074219 L 12.617188 -14.230469 L 15.144531 -3.601562 L 4.425781 -1.476562 L -0.800781 -27.839844 L -0.136719 -30.304688 C 0.695312 -33.390625 2.308594 -36.308594 4.703125 -39.054688 C 7.445312 -42.15625 10.882812 -44.195312 15.015625 -45.179688 C 16.59375 -45.554688 18.183594 -45.617188 19.777344 -45.371094 C 21.316406 -45.132812 22.769531 -44.613281 24.132812 -43.820312 C 25.996094 -42.734375 27.589844 -41.15625 28.914062 -39.09375 C 30.007812 -37.328125 30.980469 -35.175781 31.835938 -32.632812 L 31.890625 -32.476562 L 31.9375 -32.316406 C 32.558594 -30.261719 33.132812 -28 33.652344 -25.527344 C 34.148438 -23.203125 34.597656 -20.929688 35.007812 -18.699219 L 35.03125 -18.574219 L 35.050781 -18.445312 C 35.410156 -16.199219 35.730469 -14.117188 36.011719 -12.195312 L 36.035156 -12.039062 L 36.054688 -11.878906 C 36.285156 -9.902344 36.457031 -8.285156 36.574219 -7.023438 L 25.695312 -6.023438 L 23.167969 -16.652344 L 39.285156 -20.484375 L 41.8125 -9.855469 L 31.082031 -7.78125 C 29.605469 -15.429688 28.332031 -21.859375 27.257812 -27.074219 C 26.285156 -31.570312 25.265625 -34.945312 24.191406 -37.210938 C 23.886719 -37.828125 23.609375 -38.269531 23.359375 -38.539062 L 23.371094 -38.539062 C 23.460938 -38.472656 23.566406 -38.410156 23.691406 -38.355469 L 28.222656 -48.296875 L 23.996094 -38.21875 C 24.132812 -38.164062 24.242188 -38.128906 24.328125 -38.113281 C 24.269531 -38.121094 24.167969 -38.128906 24.023438 -38.128906 C 23.355469 -38.136719 22.480469 -38.011719 21.402344 -37.753906 C 21.914062 -37.875 22.324219 -38.085938 22.632812 -38.378906 C 22.386719 -38.144531 22.148438 -37.808594 21.921875 -37.375 C 21.472656 -36.515625 21.109375 -35.621094 20.835938 -34.699219 C 20.554688 -33.675781 20.382812 -32.6875 20.328125 -31.726562 L -1.296875 -30.230469 Z M -6.945312 -58.667969 "/></g></g></g><g fill="#0081fb" fill-opacity="1"><g transform="translate(69.736469, 92.194633)"><g><path d="M -8.292969 -50.375 L -0.613281 -51.902344 L 1.515625 -41.183594 L -9.203125 -39.0625 L -14.246094 -64.511719 L 23.308594 -75.992188 L 27.15625 -45.863281 L 16.320312 -44.476562 L 13.777344 -55.101562 L 36.328125 -60.503906 L 41.441406 -22.351562 L 21.152344 -18.59375 L 19.164062 -29.339844 L 29.921875 -31.242188 L 36.269531 4.6875 L -1.148438 11.300781 L -6.429688 -24.808594 L 4.382812 -26.390625 L 6.980469 -15.777344 L -11.5 -11.253906 L -19.070312 -48.234375 Z M -4.03125 -28.941406 L -6.160156 -39.660156 L 4.542969 -41.851562 L 7.632812 -26.757812 L -3.074219 -24.566406 L -5.667969 -35.179688 L 13.457031 -39.859375 L 18.84375 -3 L 8.035156 -1.417969 L 6.132812 -12.179688 L 21.710938 -14.929688 L 23.609375 -4.171875 L 12.851562 -2.269531 L 6.519531 -38.109375 L 27.242188 -41.949219 L 29.234375 -31.203125 L 18.402344 -29.75 L 16.277344 -45.609375 L 27.105469 -47.058594 L 29.652344 -36.433594 L 7.023438 -31.015625 L 3.273438 -60.371094 L 14.113281 -61.753906 L 17.308594 -51.304688 L 1.585938 -46.5 L -1.609375 -56.949219 L 9.109375 -59.074219 L 14.355469 -32.597656 Z M -4.03125 -28.941406 "/></g></g></g><g fill="#0081fb" fill-opacity="1"><g transform="translate(103.04456, 86.260131)"><g><path d="M -5.6875 -50.734375 L 2.054688 -51.863281 L 3.632812 -41.050781 L -7.179688 -39.484375 L -10.90625 -65.160156 L 27.1875 -74.695312 L 29.480469 -44.402344 L 18.585938 -43.578125 L 16.59375 -54.320312 L 39.394531 -58.554688 L 42.539062 -20.191406 L 22.082031 -17.484375 L 20.648438 -28.316406 L 31.492188 -29.660156 L 35.980469 6.546875 L -1.730469 11.226562 L -5.144531 -25.105469 L 5.734375 -26.128906 L 7.78125 -15.398438 L -10.90625 -11.832031 L -16.5625 -49.152344 Z M -2.539062 -29.113281 L -4.113281 -39.921875 L 6.691406 -41.5625 L 9 -26.328125 L -1.804688 -24.691406 L -3.851562 -35.425781 L 15.488281 -39.113281 L 18.976562 -2.027344 L 8.097656 -1.003906 L 6.75 -11.847656 L 22.449219 -13.796875 L 23.792969 -2.953125 L 12.949219 -1.605469 L 8.46875 -37.726562 L 29.367188 -40.492188 L 30.800781 -29.65625 L 19.910156 -28.765625 L 18.601562 -44.710938 L 29.492188 -45.601562 L 31.484375 -34.859375 L 8.609375 -30.613281 L 6.375 -60.121094 L 17.269531 -60.949219 L 19.921875 -50.347656 L 3.976562 -46.355469 L 1.324219 -56.957031 L 12.136719 -58.527344 L 16.015625 -31.816406 Z M -2.539062 -29.113281 "/></g></g></g><g fill="#0081fb" fill-opacity="1"><g transform="translate(136.495677, 81.948575)"><g><path d="M 23.941406 -42.71875 L 24.035156 -35.046875 L 13.109375 -34.914062 L 4.09375 -41.085938 C 6.925781 -45.222656 10.417969 -48.464844 14.570312 -50.808594 C 18.675781 -53.082031 22.699219 -54.347656 26.648438 -54.609375 C 31.542969 -54.9375 35.847656 -53.832031 39.558594 -51.296875 C 42.480469 -49.222656 44.863281 -46.65625 46.710938 -43.585938 L 46.8125 -43.421875 L 46.90625 -43.25 C 48.386719 -40.585938 49.507812 -37.71875 50.269531 -34.652344 L 50.304688 -34.523438 L 50.332031 -34.386719 C 50.929688 -31.707031 51.308594 -29.148438 51.472656 -26.707031 C 51.710938 -23.117188 51.746094 -19.710938 51.574219 -16.484375 C 51.265625 -12.203125 50.3125 -8.359375 48.71875 -4.957031 C 46.839844 -0.945312 44.046875 2.300781 40.347656 4.785156 C 36.601562 7.242188 32 8.652344 26.550781 9.015625 C 22.554688 9.28125 18.085938 8.96875 13.152344 8.078125 L 15.089844 -2.675781 L 25.945312 -3.917969 L 29.246094 24.9375 L -7.992188 27.417969 L -13.46875 -49.640625 L 23.785156 -55.257812 Z M 2.089844 -42.449219 L 13.015625 -42.585938 L 14.644531 -31.78125 L -0.226562 -29.539062 L -1.855469 -40.34375 L 9.042969 -41.117188 L 13.035156 15.019531 L 2.136719 15.792969 L 1.410156 4.890625 L 16.363281 3.894531 L 17.089844 14.796875 L 6.234375 16.039062 L 2.5625 -16.035156 L 17.03125 -13.425781 C 20.199219 -12.855469 22.890625 -12.644531 25.097656 -12.789062 C 26.101562 -12.855469 26.933594 -12.984375 27.601562 -13.175781 C 27.9375 -13.269531 28.125 -13.332031 28.164062 -13.355469 C 28.511719 -13.589844 28.765625 -13.882812 28.929688 -14.234375 C 29.382812 -15.195312 29.65625 -16.332031 29.753906 -17.636719 C 29.878906 -19.996094 29.847656 -22.535156 29.667969 -25.253906 C 29.578125 -26.582031 29.355469 -28.042969 29.003906 -29.636719 L 39.667969 -32.011719 L 29.066406 -29.371094 C 28.765625 -30.574219 28.34375 -31.664062 27.796875 -32.648438 L 37.351562 -37.949219 L 27.992188 -32.308594 C 27.714844 -32.773438 27.460938 -33.085938 27.230469 -33.253906 C 27.523438 -33.050781 27.824219 -32.914062 28.132812 -32.839844 C 28.203125 -32.824219 28.257812 -32.8125 28.296875 -32.808594 C 28.253906 -32.8125 28.1875 -32.8125 28.101562 -32.804688 C 27.394531 -32.757812 26.46875 -32.417969 25.316406 -31.78125 C 24.109375 -31.097656 23.042969 -30.085938 22.125 -28.742188 L 2.605469 -0.234375 Z M 21.328125 -20.238281 C 21.050781 -20.160156 20.847656 -20.09375 20.710938 -20.039062 C 20.820312 -20.085938 20.980469 -20.171875 21.191406 -20.304688 L 21.054688 -20.21875 L 20.910156 -20.132812 C 22.363281 -20.988281 23.40625 -22.234375 24.039062 -23.878906 L 13.832031 -27.789062 L 24.140625 -24.160156 C 24.253906 -24.476562 24.324219 -24.765625 24.359375 -25.027344 C 24.367188 -25.074219 24.371094 -25.113281 24.371094 -25.136719 C 24.371094 -25.121094 24.371094 -25.089844 24.371094 -25.050781 C 24.390625 -24.054688 24.453125 -22.730469 24.5625 -21.078125 C 24.675781 -19.402344 24.796875 -17.976562 24.921875 -16.800781 C 24.945312 -16.617188 24.964844 -16.484375 24.984375 -16.402344 C 24.957031 -16.511719 24.902344 -16.660156 24.816406 -16.847656 C 24.503906 -17.539062 24.070312 -18.175781 23.515625 -18.757812 C 22.910156 -19.394531 22.214844 -19.902344 21.4375 -20.28125 L 21.59375 -20.203125 L 21.753906 -20.121094 C 21.027344 -20.503906 20.304688 -20.75 19.59375 -20.851562 C 19.34375 -20.890625 19.160156 -20.90625 19.046875 -20.898438 C 19.082031 -20.898438 19.105469 -20.902344 19.128906 -20.902344 L 19.121094 -20.902344 C 19.039062 -20.890625 18.941406 -20.867188 18.824219 -20.835938 C 18.230469 -20.675781 17.625 -20.394531 17.015625 -19.988281 L 23.054688 -10.882812 L 16.722656 -19.785156 C 15.375 -18.828125 14.480469 -17.609375 14.035156 -16.128906 C 13.976562 -15.933594 13.941406 -15.777344 13.929688 -15.664062 C 13.9375 -15.746094 13.941406 -15.882812 13.9375 -16.070312 L 24.859375 -16.339844 L 13.957031 -15.613281 L 13.640625 -20.347656 C 13.523438 -22.113281 13.449219 -23.714844 13.414062 -25.148438 L 24.339844 -25.402344 L 13.4375 -24.675781 C 13.398438 -25.273438 13.347656 -25.679688 13.292969 -25.902344 C 13.570312 -24.816406 14.191406 -23.800781 15.15625 -22.851562 L 22.820312 -30.640625 L 16.121094 -22.007812 C 17.167969 -21.195312 18.308594 -20.65625 19.535156 -20.390625 C 20.140625 -20.261719 20.6875 -20.214844 21.179688 -20.246094 C 21.308594 -20.253906 21.414062 -20.269531 21.5 -20.285156 C 21.484375 -20.28125 21.445312 -20.269531 21.386719 -20.253906 Z M 15.398438 -41.269531 C 16.902344 -41.699219 18.347656 -41.960938 19.726562 -42.050781 C 23.539062 -42.304688 26.804688 -41.378906 29.523438 -39.269531 L 30.03125 -38.875 L 30.488281 -38.425781 C 32.402344 -36.539062 33.726562 -34.179688 34.457031 -31.347656 C 34.847656 -29.816406 35.109375 -28.078125 35.242188 -26.128906 L 35.257812 -25.890625 L 35.261719 -25.652344 C 35.289062 -24.535156 35.347656 -23.25 35.445312 -21.800781 L 35.777344 -16.839844 L 35.78125 -16.613281 C 35.84375 -14.117188 35.570312 -11.855469 34.960938 -9.832031 C 33.96875 -6.53125 32.113281 -3.914062 29.386719 -1.976562 L 29.242188 -1.875 L 29.09375 -1.777344 C 26.734375 -0.210938 23.871094 0.683594 20.503906 0.90625 C 17.117188 1.132812 14.136719 0.566406 11.5625 -0.789062 L 16.65625 -10.453125 L 11.878906 -0.628906 C 8.710938 -2.167969 6.386719 -4.570312 4.910156 -7.828125 C 4.039062 -9.753906 3.46875 -11.957031 3.199219 -14.441406 C 3.039062 -15.917969 2.890625 -17.644531 2.757812 -19.625 C 2.625 -21.625 2.546875 -23.292969 2.523438 -24.632812 C 2.472656 -27.117188 2.808594 -29.375 3.527344 -31.414062 L 3.628906 -31.695312 C 4.828125 -34.824219 6.90625 -37.253906 9.859375 -38.988281 L 15.382812 -29.558594 L 9.574219 -38.816406 C 11.167969 -39.8125 13.125 -40.636719 15.457031 -41.285156 Z M 15.398438 -41.269531 "/></g></g></g><g fill="#0081fb" fill-opacity="1"><g transform="translate(177.355096, 79.172532)"><g><path d="M 13.578125 -28.785156 C 13.582031 -27.71875 13.773438 -26.703125 14.15625 -25.746094 C 14.394531 -25.140625 14.6875 -24.609375 15.035156 -24.152344 C 15.929688 -22.972656 17.054688 -22.085938 18.414062 -21.488281 C 19.457031 -21.03125 20.5 -20.808594 21.542969 -20.8125 C 22.21875 -20.816406 22.878906 -20.898438 23.527344 -21.066406 L 23.277344 -21 L 23.019531 -20.949219 C 23.398438 -21.027344 23.757812 -21.132812 24.101562 -21.273438 C 24.65625 -21.488281 25.234375 -21.832031 25.832031 -22.300781 C 26.753906 -23.023438 27.5 -23.914062 28.078125 -24.964844 L 27.867188 -24.578125 L 27.625 -24.210938 C 28.179688 -25.054688 28.523438 -25.910156 28.652344 -26.78125 C 28.65625 -26.796875 28.664062 -26.664062 28.679688 -26.386719 L 28.699219 -26.082031 L 28.71875 -22.53125 C 28.714844 -22.746094 28.6875 -23 28.636719 -23.300781 C 28.503906 -24.035156 28.253906 -24.769531 27.882812 -25.5 L 28.234375 -24.808594 L 28.480469 -24.074219 C 28.097656 -25.203125 27.4375 -26.234375 26.492188 -27.167969 C 25.113281 -28.535156 23.4375 -29.378906 21.46875 -29.695312 L 22.632812 -29.507812 L 23.730469 -29.074219 C 22.703125 -29.480469 21.601562 -29.679688 20.417969 -29.671875 C 19.808594 -29.671875 19.1875 -29.605469 18.546875 -29.472656 C 16.457031 -29.042969 14.648438 -28.058594 13.125 -26.519531 L 16.308594 -29.738281 L 21.003906 -29.757812 L 26.578125 -29.785156 C 29.085938 -29.796875 31.394531 -29.710938 33.511719 -29.523438 C 36.390625 -29.265625 39.007812 -28.652344 41.367188 -27.683594 L 41.625 -27.578125 L 41.878906 -27.457031 C 45.089844 -25.941406 47.625 -23.699219 49.484375 -20.726562 L 49.644531 -20.472656 L 49.789062 -20.207031 C 51.359375 -17.363281 52.152344 -13.984375 52.171875 -10.074219 C 52.183594 -7.546875 51.785156 -5.179688 50.980469 -2.976562 C 50.078125 -0.511719 48.707031 1.648438 46.871094 3.503906 C 44.1875 6.117188 41.074219 8.082031 37.539062 9.40625 C 34.550781 10.523438 31.417969 11.246094 28.148438 11.574219 C 25.410156 11.84375 22.957031 11.980469 20.789062 11.992188 C 17.785156 12.007812 15.039062 11.730469 12.554688 11.164062 L 14.988281 0.511719 L 12.894531 11.234375 C 10.273438 10.722656 7.910156 9.949219 5.8125 8.914062 C 3.636719 7.886719 1.71875 6.605469 0.0625 5.074219 L 7.476562 -2.949219 L 0.628906 5.5625 C -0.992188 4.257812 -2.386719 2.816406 -3.5625 1.234375 C -6.097656 -2.078125 -7.628906 -5.914062 -8.15625 -10.269531 L -9.710938 -23.113281 L 29.472656 -21.25 L 29.535156 -8.179688 L 29.5 -7.726562 C 29.535156 -8.164062 29.484375 -8.675781 29.351562 -9.253906 C 29.09375 -10.398438 28.617188 -11.460938 27.925781 -12.453125 C 27.105469 -13.625 26.070312 -14.566406 24.828125 -15.269531 L 25.664062 -14.792969 L 26.40625 -14.183594 C 25.289062 -15.105469 24.058594 -15.730469 22.71875 -16.058594 C 22.125 -16.203125 21.574219 -16.277344 21.066406 -16.273438 L 21.734375 -16.277344 L 21.785156 -5.351562 L 20.589844 -16.210938 C 21.308594 -16.289062 21.78125 -16.351562 22.003906 -16.398438 C 20.703125 -16.132812 19.507812 -15.59375 18.421875 -14.789062 C 17.347656 -13.996094 16.496094 -13.023438 15.867188 -11.875 L 25.441406 -6.617188 L 15.4375 -11.003906 C 15.132812 -10.3125 14.9375 -9.65625 14.855469 -9.035156 C 14.84375 -8.953125 14.839844 -8.886719 14.835938 -8.835938 C 14.835938 -8.863281 14.839844 -8.914062 14.835938 -8.980469 C 14.832031 -9.824219 14.777344 -11.117188 14.671875 -12.851562 L 25.574219 -13.527344 L 25.628906 -2.601562 L 21.132812 -2.578125 C 19.554688 -2.570312 18.140625 -2.597656 16.894531 -2.65625 L 17.417969 -13.570312 L 17.46875 -2.644531 C 15.988281 -2.636719 14.5625 -2.710938 13.195312 -2.863281 L 14.417969 -13.722656 L 13.867188 -2.808594 C 12.46875 -2.882812 11.070312 -3.027344 9.675781 -3.253906 C 8.476562 -3.4375 7.132812 -3.6875 5.652344 -4.003906 C 3.101562 -4.550781 0.832031 -5.5 -1.160156 -6.859375 C -3.390625 -8.382812 -5.164062 -10.328125 -6.476562 -12.695312 L 3.078125 -17.996094 L -6.347656 -12.464844 C -8.347656 -15.871094 -9.359375 -20.082031 -9.382812 -25.097656 C -9.386719 -26.21875 -9.324219 -27.535156 -9.1875 -29.046875 L 1.695312 -28.0625 L -9.21875 -28.558594 C -9.128906 -30.566406 -8.761719 -32.636719 -8.125 -34.777344 C -7.417969 -37.03125 -6.386719 -39.214844 -5.023438 -41.328125 C -3.285156 -43.902344 -1.023438 -46.097656 1.769531 -47.910156 C 4.308594 -49.558594 7.335938 -50.84375 10.863281 -51.765625 C 14.132812 -52.617188 17.945312 -53.054688 22.304688 -53.074219 C 25.933594 -53.09375 29.210938 -52.691406 32.140625 -51.871094 L 32.320312 -51.820312 L 32.5 -51.761719 C 35.453125 -50.824219 38.050781 -49.566406 40.300781 -47.988281 L 40.542969 -47.816406 C 42.847656 -46.101562 44.765625 -44.140625 46.289062 -41.925781 L 46.449219 -41.695312 L 46.597656 -41.453125 C 47.710938 -39.640625 48.640625 -37.800781 49.378906 -35.9375 L 49.460938 -35.734375 L 49.535156 -35.523438 C 51.117188 -31.015625 51.6875 -26.070312 51.246094 -20.695312 L 50.425781 -10.710938 L 14.078125 -10.535156 L 13.578125 -28.664062 Z M 35.429688 -28.890625 L 24.503906 -28.839844 L 35.425781 -29.140625 L 35.628906 -21.816406 L 24.703125 -21.515625 L 24.652344 -32.441406 L 40.304688 -32.515625 L 40.355469 -21.589844 L 29.464844 -22.484375 C 29.652344 -24.769531 29.46875 -26.707031 28.914062 -28.289062 L 39.222656 -31.90625 L 29.066406 -27.878906 C 28.796875 -28.5625 28.433594 -29.269531 27.984375 -30 L 37.289062 -35.726562 L 28.292969 -29.527344 C 28.140625 -29.75 27.878906 -29.996094 27.515625 -30.269531 L 34.027344 -39.042969 L 27.753906 -30.09375 C 27.332031 -30.394531 26.703125 -30.675781 25.875 -30.9375 L 29.1875 -41.351562 L 26.238281 -30.828125 C 25.273438 -31.097656 24 -31.230469 22.410156 -31.222656 C 19.886719 -31.210938 17.875 -31.007812 16.378906 -30.621094 C 15.136719 -30.292969 14.234375 -29.949219 13.675781 -29.585938 C 13.445312 -29.4375 13.269531 -29.304688 13.148438 -29.191406 C 13.136719 -29.183594 13.128906 -29.171875 13.121094 -29.164062 C 13.121094 -29.167969 13.125 -29.167969 13.128906 -29.171875 C 13.15625 -29.203125 13.226562 -29.304688 13.339844 -29.476562 C 13.050781 -29.027344 12.875 -28.707031 12.8125 -28.515625 C 12.6875 -28.097656 12.621094 -27.785156 12.613281 -27.570312 L 12.601562 -27.324219 L 12.578125 -27.082031 C 12.503906 -26.257812 12.46875 -25.632812 12.46875 -25.203125 C 12.472656 -24.429688 12.523438 -23.816406 12.621094 -23.363281 C 12.640625 -23.277344 12.652344 -23.226562 12.660156 -23.203125 C 12.628906 -23.292969 12.574219 -23.402344 12.5 -23.527344 L 12.566406 -23.414062 L 12.632812 -23.296875 C 12.269531 -23.949219 11.78125 -24.484375 11.160156 -24.90625 C 10.789062 -25.164062 10.464844 -25.320312 10.191406 -25.378906 C 11.265625 -25.152344 12.253906 -24.96875 13.164062 -24.828125 C 13.769531 -24.730469 14.371094 -24.664062 14.972656 -24.636719 L 15.308594 -24.617188 L 15.644531 -24.582031 C 16.164062 -24.523438 16.738281 -24.492188 17.363281 -24.496094 L 17.652344 -24.5 L 17.9375 -24.484375 C 18.800781 -24.445312 19.832031 -24.425781 21.027344 -24.429688 L 35.84375 -24.503906 L 36.480469 -14.203125 C 36.613281 -12.054688 36.683594 -10.347656 36.691406 -9.085938 C 36.703125 -6.429688 36.289062 -4.144531 35.449219 -2.226562 L 35.253906 -1.78125 L 35.019531 -1.355469 C 34.113281 0.292969 32.917969 1.667969 31.429688 2.769531 C 29.925781 3.882812 28.25 4.628906 26.394531 5.007812 C 25.507812 5.191406 24.371094 5.359375 22.980469 5.511719 L 22.414062 5.574219 L 21.171875 5.578125 C 17.757812 5.597656 14.867188 4.628906 12.5 2.671875 L 19.453125 -5.753906 L 14.078125 3.757812 C 12.445312 2.835938 11.089844 1.605469 10.019531 0.0742188 C 9.074219 -1.277344 8.417969 -2.769531 8.042969 -4.410156 C 7.683594 -5.992188 7.574219 -7.664062 7.714844 -9.4375 L 18.605469 -8.582031 L 7.679688 -8.527344 L 7.667969 -10.777344 L 18.597656 -10.828125 L 18.078125 0.0859375 L 2.171875 -0.671875 L 2.691406 -11.585938 L 13.539062 -12.898438 C 13.589844 -12.488281 13.742188 -12.113281 14 -11.773438 C 14.054688 -11.695312 14.164062 -11.59375 14.328125 -11.464844 L 14.621094 -11.226562 L 14.894531 -10.972656 C 14.867188 -11 14.84375 -11.019531 14.824219 -11.035156 C 14.828125 -11.03125 14.839844 -11.023438 14.859375 -11.011719 C 14.972656 -10.9375 15.183594 -10.828125 15.492188 -10.679688 C 15.839844 -10.507812 16.371094 -10.351562 17.078125 -10.214844 L 17.25 -10.179688 L 17.417969 -10.140625 C 18.269531 -9.949219 19.355469 -9.855469 20.683594 -9.859375 C 22.175781 -9.867188 23.9375 -9.972656 25.972656 -10.171875 C 27.359375 -10.308594 28.664062 -10.605469 29.886719 -11.0625 C 30.558594 -11.316406 31.046875 -11.585938 31.34375 -11.875 C 30.945312 -11.46875 30.648438 -11.007812 30.457031 -10.488281 C 30.394531 -10.3125 30.351562 -10.152344 30.328125 -10.007812 C 30.320312 -9.972656 30.320312 -9.945312 30.316406 -9.925781 C 30.316406 -9.933594 30.316406 -9.949219 30.316406 -9.96875 C 30.316406 -10.261719 30.304688 -10.460938 30.285156 -10.558594 C 30.335938 -10.304688 30.460938 -10 30.65625 -9.652344 L 40.222656 -14.929688 L 30.957031 -9.132812 C 31.363281 -8.484375 31.894531 -8.007812 32.546875 -7.699219 L 37.210938 -17.578125 L 33.058594 -7.472656 C 32.746094 -7.601562 32.253906 -7.695312 31.578125 -7.753906 C 30.140625 -7.882812 28.507812 -7.941406 26.683594 -7.933594 L 21.109375 -7.90625 L 20.941406 -7.90625 L 20.886719 -18.832031 L 28.652344 -11.144531 C 27.070312 -9.546875 25.167969 -8.523438 22.9375 -8.066406 C 22.160156 -7.90625 21.359375 -7.824219 20.523438 -7.820312 C 18.902344 -7.8125 17.296875 -8.121094 15.714844 -8.746094 L 19.722656 -18.910156 L 17.976562 -8.125 C 15.339844 -8.550781 13.054688 -9.722656 11.117188 -11.640625 C 9.613281 -13.128906 8.503906 -14.933594 7.785156 -17.0625 L 18.132812 -20.566406 L 8.382812 -15.632812 C 7.382812 -17.609375 6.875 -19.875 6.863281 -22.425781 L 6.847656 -25.675781 L 17.773438 -25.726562 L 6.867188 -25.066406 C 6.765625 -26.785156 6.820312 -28.429688 7.039062 -30 C 7.382812 -32.316406 8.164062 -34.398438 9.382812 -36.242188 L 18.503906 -30.226562 L 8.925781 -35.488281 C 10.472656 -38.304688 12.792969 -40.316406 15.886719 -41.523438 C 16.785156 -41.886719 17.699219 -42.164062 18.632812 -42.355469 L 20.828125 -31.652344 L 18.125 -42.238281 C 19.214844 -42.519531 20.320312 -42.660156 21.441406 -42.664062 C 23.484375 -42.675781 25.402344 -42.289062 27.195312 -41.5 C 29.304688 -40.574219 31.058594 -39.191406 32.453125 -37.347656 C 34.421875 -34.75 35.414062 -31.929688 35.429688 -28.890625 Z M 35.429688 -28.890625 "/></g></g></g><g fill="#181c28" fill-opacity="1"><g transform="translate(27.629886, 102.122529)"><g><path d="M 3.765625 -60.8125 L 9.421875 -32.359375 C 9.523438 -34.097656 9.816406 -35.851562 10.296875 -37.625 C 10.804688 -39.34375 11.457031 -40.953125 12.25 -42.453125 C 13.019531 -43.941406 13.96875 -45.222656 15.09375 -46.296875 C 16.207031 -47.347656 17.46875 -48.039062 18.875 -48.375 C 22.757812 -49.300781 25.875 -49.273438 28.21875 -48.296875 C 30.53125 -47.242188 32.457031 -45.164062 34 -42.0625 C 35.476562 -38.914062 36.789062 -34.691406 37.9375 -29.390625 C 39.03125 -24.054688 40.316406 -17.546875 41.796875 -9.859375 L 25.6875 -6.03125 C 25.582031 -7.195312 25.414062 -8.722656 25.1875 -10.609375 C 24.925781 -12.484375 24.613281 -14.519531 24.25 -16.71875 C 23.863281 -18.851562 23.4375 -21.03125 22.96875 -23.25 C 22.507812 -25.425781 22.015625 -27.390625 21.484375 -29.140625 C 20.890625 -30.890625 20.269531 -32.289062 19.625 -33.34375 C 18.988281 -34.320312 18.296875 -34.722656 17.546875 -34.546875 C 15.660156 -34.097656 14.101562 -33.179688 12.875 -31.796875 C 11.632812 -30.367188 10.8125 -28.925781 10.40625 -27.46875 L 15.140625 -3.59375 L 1.875 -0.4375 L 0.046875 -8.125 C -0.617188 -10.9375 -1.3125 -13.859375 -2.03125 -16.890625 C -2.8125 -19.898438 -3.578125 -22.96875 -4.328125 -26.09375 L -6.453125 -35.078125 C -8.140625 -41.929688 -9.863281 -48.945312 -11.625 -56.125 Z M 3.765625 -60.8125 "/></g></g></g><g fill="#181c28" fill-opacity="1"><g transform="translate(69.736469, 92.194633)"><g><path d="M -6.171875 -39.65625 L 1.515625 -41.1875 L -1.609375 -56.953125 L 14.109375 -61.75 L 16.328125 -44.46875 L 27.109375 -47.046875 L 29.234375 -31.203125 L 19.15625 -29.34375 L 23.609375 -4.171875 L 8.03125 -1.421875 L 4.375 -26.375 L -3.0625 -24.5625 Z M -6.171875 -39.65625 "/></g></g></g><g fill="#181c28" fill-opacity="1"><g transform="translate(103.04456, 86.260131)"><g><path d="M -4.109375 -39.921875 L 3.640625 -41.046875 L 1.328125 -56.96875 L 17.265625 -60.953125 L 18.578125 -43.578125 L 29.484375 -45.609375 L 30.796875 -29.671875 L 20.640625 -28.328125 L 23.78125 -2.953125 L 8.09375 -1 L 5.734375 -26.125 L -1.8125 -24.6875 Z M -4.109375 -39.921875 "/></g></g></g><g fill="#181c28" fill-opacity="1"><g transform="translate(136.495677, 81.948575)"><g><path d="M 13.015625 -42.578125 L 13.109375 -34.921875 C 14.984375 -37.660156 17.257812 -39.78125 19.9375 -41.28125 C 22.5625 -42.75 25.039062 -43.5625 27.375 -43.71875 C 29.75 -43.875 31.753906 -43.390625 33.390625 -42.265625 C 34.972656 -41.148438 36.289062 -39.707031 37.34375 -37.9375 C 38.363281 -36.113281 39.132812 -34.132812 39.65625 -32 C 40.132812 -29.875 40.4375 -27.875 40.5625 -26 C 40.769531 -22.832031 40.800781 -19.847656 40.65625 -17.046875 C 40.457031 -14.265625 39.84375 -11.785156 38.8125 -9.609375 C 37.800781 -7.410156 36.28125 -5.640625 34.25 -4.296875 C 32.175781 -2.929688 29.363281 -2.128906 25.8125 -1.890625 C 22.71875 -1.679688 19.144531 -1.945312 15.09375 -2.6875 L 17.09375 14.8125 L 2.140625 15.796875 L -1.859375 -40.34375 Z M 18.390625 -30.765625 C 17.066406 -30.390625 16.066406 -29.988281 15.390625 -29.5625 C 14.640625 -29.125 14.125 -28.535156 13.84375 -27.796875 C 13.5625 -26.984375 13.425781 -26 13.4375 -24.84375 C 13.46875 -23.675781 13.539062 -22.175781 13.65625 -20.34375 C 13.78125 -18.53125 13.914062 -16.957031 14.0625 -15.625 C 14.207031 -14.289062 14.476562 -13.195312 14.875 -12.34375 C 15.269531 -11.476562 15.863281 -10.851562 16.65625 -10.46875 C 17.394531 -10.0625 18.429688 -9.90625 19.765625 -10 C 21.210938 -10.09375 22.304688 -10.390625 23.046875 -10.890625 C 23.742188 -11.378906 24.226562 -12.078125 24.5 -12.984375 C 24.769531 -13.890625 24.890625 -15.007812 24.859375 -16.34375 C 24.765625 -17.675781 24.65625 -19.25 24.53125 -21.0625 C 24.425781 -22.675781 24.359375 -24.117188 24.328125 -25.390625 C 24.242188 -26.660156 24.085938 -27.734375 23.859375 -28.609375 C 23.640625 -29.492188 23.289062 -30.171875 22.8125 -30.640625 C 22.300781 -31.046875 21.519531 -31.21875 20.46875 -31.15625 C 19.851562 -31.113281 19.160156 -30.984375 18.390625 -30.765625 Z M 18.390625 -30.765625 "/></g></g></g><g fill="#181c28" fill-opacity="1"><g transform="translate(177.355096, 79.172532)"><g><path d="M 24.5 -28.84375 C 24.5 -29.457031 24.25 -30.09375 23.75 -30.75 C 23.238281 -31.414062 22.484375 -31.75 21.484375 -31.75 C 21.265625 -31.75 21.046875 -31.710938 20.828125 -31.640625 C 20.546875 -31.585938 20.265625 -31.503906 19.984375 -31.390625 C 19.265625 -31.117188 18.769531 -30.734375 18.5 -30.234375 C 18.175781 -29.734375 17.957031 -29.125 17.84375 -28.40625 C 17.738281 -27.613281 17.71875 -26.722656 17.78125 -25.734375 C 17.789062 -24.734375 17.796875 -23.648438 17.796875 -22.484375 C 17.796875 -21.648438 17.910156 -21.015625 18.140625 -20.578125 C 18.304688 -20.078125 18.523438 -19.6875 18.796875 -19.40625 C 19.078125 -19.125 19.382812 -18.957031 19.71875 -18.90625 C 20 -18.789062 20.25 -18.734375 20.46875 -18.734375 C 20.6875 -18.734375 20.828125 -18.765625 20.890625 -18.828125 L 21.046875 -18.84375 L 26.625 -18.859375 C 28.789062 -18.867188 30.765625 -18.796875 32.546875 -18.640625 C 34.316406 -18.484375 35.875 -18.128906 37.21875 -17.578125 C 38.488281 -16.972656 39.488281 -16.085938 40.21875 -14.921875 C 40.894531 -13.710938 41.238281 -12.082031 41.25 -10.03125 C 41.257812 -7.582031 40.546875 -5.632812 39.109375 -4.1875 C 37.609375 -2.726562 35.8125 -1.609375 33.71875 -0.828125 C 31.601562 -0.0351562 29.382812 0.472656 27.0625 0.703125 C 24.664062 0.941406 22.554688 1.066406 20.734375 1.078125 C 18.566406 1.085938 16.648438 0.894531 14.984375 0.5 C 13.316406 0.175781 11.875 -0.28125 10.65625 -0.875 C 9.363281 -1.488281 8.304688 -2.175781 7.484375 -2.9375 C 6.585938 -3.664062 5.832031 -4.445312 5.21875 -5.28125 C 3.820312 -7.09375 2.976562 -9.195312 2.6875 -11.59375 L 18.59375 -10.828125 C 18.59375 -9.992188 18.59375 -9.242188 18.59375 -8.578125 C 18.550781 -7.921875 18.585938 -7.34375 18.703125 -6.84375 C 18.804688 -6.34375 19.054688 -5.976562 19.453125 -5.75 C 19.785156 -5.476562 20.335938 -5.347656 21.109375 -5.359375 L 21.78125 -5.359375 C 22.832031 -5.460938 23.632812 -5.570312 24.1875 -5.6875 C 24.75 -5.8125 25.164062 -6.125 25.4375 -6.625 C 25.664062 -7.125 25.773438 -7.925781 25.765625 -9.03125 C 25.765625 -10.082031 25.703125 -11.582031 25.578125 -13.53125 L 21.078125 -13.515625 C 19.691406 -13.503906 18.472656 -13.519531 17.421875 -13.5625 C 16.367188 -13.5625 15.367188 -13.613281 14.421875 -13.71875 C 13.421875 -13.769531 12.421875 -13.878906 11.421875 -14.046875 C 10.367188 -14.203125 9.195312 -14.414062 7.90625 -14.6875 C 5.632812 -15.175781 4.019531 -16.28125 3.0625 -18 C 2.070312 -19.71875 1.566406 -22.101562 1.546875 -25.15625 C 1.546875 -25.9375 1.59375 -26.910156 1.6875 -28.078125 C 1.75 -29.179688 1.96875 -30.375 2.34375 -31.65625 C 2.726562 -32.875 3.332031 -34.117188 4.15625 -35.390625 C 4.988281 -36.628906 6.175781 -37.75 7.71875 -38.75 C 9.269531 -39.75 11.234375 -40.5625 13.609375 -41.1875 C 16.003906 -41.8125 18.921875 -42.132812 22.359375 -42.15625 C 24.960938 -42.164062 27.238281 -41.894531 29.1875 -41.34375 C 31.082031 -40.75 32.695312 -39.984375 34.03125 -39.046875 C 35.375 -38.046875 36.460938 -36.941406 37.296875 -35.734375 C 38.078125 -34.460938 38.71875 -33.1875 39.21875 -31.90625 C 40.289062 -28.863281 40.664062 -25.421875 40.34375 -21.578125 L 24.703125 -21.515625 Z M 24.5 -28.84375 "/></g></g></g></g></g></g></g></g></svg>